<svg xmlns="http://www.w3.org/2000/svg" version="1.1" xmlns:xlink="http://www.w3.org/1999/xlink" xmlns:svgjs="http://svgjs.dev/svgjs" width="1000" height="510" viewBox="0 0 1000 510"><g transform="matrix(1,0,0,1,-0.6060606060606801,-0.18513027984317887)"><svg viewBox="0 0 396 202" data-background-color="#ffffff" preserveAspectRatio="xMidYMid meet" height="510" width="1000" xmlns="http://www.w3.org/2000/svg" xmlns:xlink="http://www.w3.org/1999/xlink"><g id="tight-bounds" transform="matrix(1,0,0,1,0.24000000000003752,0.07332611083984375)"><svg viewBox="0 0 395.5199999999999 201.85334613160376" height="201.85334613160376" width="395.5199999999999"><g><svg viewBox="0 0 675.6438579778064 344.8143545865855" height="201.85334613160376" width="395.5199999999999"><g transform="matrix(1,0,0,1,280.12385797780644,96.8118224545831)"><svg viewBox="0 0 395.52 151.19070967741933" height="151.19070967741933" width="395.52"><g id="textblocktransform"><svg viewBox="0 0 395.52 151.19070967741933" height="151.19070967741933" width="395.52" id="textblock"><g><svg viewBox="0 0 395.52 151.19070967741933" height="151.19070967741933" width="395.52"><g transform="matrix(1,0,0,1,0,0)"><svg width="395.52" viewBox="3.9000000953674316 -35 92.98999786376953 35.54999923706055" height="151.19070967741933" data-palette-color="url(#6d3c64d7-10be-4a87-8dc5-29212760f3d8)"></svg></g></svg></g></svg></g></svg></g><g><svg viewBox="0 0 244.43136 344.8143545865855" height="344.8143545865855" width="244.43136"><g><svg xmlns="http://www.w3.org/2000/svg" xmlns:xlink="http://www.w3.org/1999/xlink" version="1.1" x="0" y="0" viewBox="20.288999557495117 8.08799934387207 59.42100524902344 83.82400512695312" enable-background="new 0 0 100 100" xml:space="preserve" height="344.8143545865855" width="244.43136" class="icon-icon-0" data-fill-palette-color="accent" id="icon-0"></svg></g></svg></g></svg></g><defs></defs><mask id="6f06e906-d999-407c-bbd7-3f445ca2b975"><g id="SvgjsG1004"><svg viewBox="0 0 395.5199999999999 201.85334613160376" height="201.85334613160376" width="395.5199999999999"><g><svg viewBox="0 0 675.6438579778064 344.8143545865855" height="201.85334613160376" width="395.5199999999999"><g transform="matrix(1,0,0,1,280.12385797780644,96.8118224545831)"><svg viewBox="0 0 395.52 151.19070967741933" height="151.19070967741933" width="395.52"><g id="SvgjsG1003"><svg viewBox="0 0 395.52 151.19070967741933" height="151.19070967741933" width="395.52" id="SvgjsSvg1002"><g><svg viewBox="0 0 395.52 151.19070967741933" height="151.19070967741933" width="395.52"><g transform="matrix(1,0,0,1,0,0)"><svg width="395.52" viewBox="3.9000000953674316 -35 92.98999786376953 35.54999923706055" height="151.19070967741933" data-palette-color="url(#6d3c64d7-10be-4a87-8dc5-29212760f3d8)"><path d="M14.95-35Q19-35 21.38-32.9 23.75-30.8 23.75-26.6L23.75-26.6Q23.75-24.7 22.95-22.88 22.15-21.05 20.15-19.85L20.15-19.85 20.1-19.75 20.1-19.7Q22.45-18.7 24-16.43 25.55-14.15 25.55-10.45L25.55-10.45Q25.55-6.15 23.23-3.08 20.9 0 15.4 0L15.4 0 3.9 0 3.9-35 14.95-35ZM6.15-20.65L15.4-20.65Q18.1-20.65 19.78-22.23 21.45-23.8 21.45-26.6L21.45-26.6Q21.45-32.85 14.55-32.85L14.55-32.85 6.15-32.85 6.15-20.65ZM6.15-2.15L15.3-2.15Q23.15-2.15 23.15-10.65L23.15-10.65Q23.15-14.25 21.1-16.35 19.05-18.45 15.95-18.45L15.95-18.45 6.15-18.45 6.15-2.15ZM38-25.45Q42.8-25.45 45.07-23.93 47.35-22.4 47.87-20.3 48.4-18.2 48.4-14.9L48.4-14.9 48.4 0Q43 0.55 40.6 0.55L40.6 0.55Q35.35 0.55 32.25-1.4 29.15-3.35 29.15-8.45L29.15-8.45 29.15-12.6Q29.15-17.55 32.65-19.25L32.65-19.25Q34.35-20.1 36.95-20.1L36.95-20.1Q39.4-20.1 41.9-19.35 44.4-18.6 46.15-17.3L46.15-17.3Q46.15-20.15 44.4-21.93 42.65-23.7 37.85-23.65L37.85-23.65 38-25.45ZM31.35-8.1Q31.35-4.5 33.77-2.98 36.2-1.45 40.55-1.45L40.55-1.45Q42.55-1.45 46.15-1.9L46.15-1.9 46.15-15.45Q44.25-16.5 41.75-17.28 39.25-18.05 37.05-18.05L37.05-18.05Q34.5-18.05 32.92-16.75 31.35-15.45 31.35-12.45L31.35-12.45 31.35-8.1ZM55.65-25.05L55.65-23.7Q57-24.55 58.82-25 60.65-25.45 62.6-25.45L62.6-25.45Q65.65-25.45 67.6-24.5L67.6-24.5Q71.85-22.55 71.85-17.3L71.85-17.3 71.85 0 69.65 0 69.65-17.2Q69.65-20.45 67.65-21.95 65.65-23.45 62.6-23.45L62.6-23.45Q60.85-23.45 59-22.98 57.15-22.5 55.65-21.7L55.65-21.7 55.65 0 53.4 0 53.4-25.05 55.65-25.05ZM80.79-35L80.79-16.25 91.34-26 92.94-24.45 85.69-18Q89.14-12.25 96.89 0L96.89 0 94.19 0 84.09-16.6 80.79-13.65 80.79 0 78.54 0 78.54-35 80.79-35Z" opacity="1" transform="matrix(1,0,0,1,0,0)" fill="white" class="wordmark-text-0" id="SvgjsPath1001"></path></svg></g></svg></g></svg></g></svg></g><g><svg viewBox="0 0 244.43136 344.8143545865855" height="344.8143545865855" width="244.43136"><g><svg xmlns="http://www.w3.org/2000/svg" xmlns:xlink="http://www.w3.org/1999/xlink" version="1.1" x="0" y="0" viewBox="20.288999557495117 8.08799934387207 59.42100524902344 83.82400512695312" enable-background="new 0 0 100 100" xml:space="preserve" height="344.8143545865855" width="244.43136" class="icon-icon-0" data-fill-palette-color="accent" id="SvgjsSvg1000"></svg></g></svg></g></svg></g><defs><mask></mask></defs></svg></g></mask><linearGradient x1="0" x2="1" y1="0.5" y2="0.5" id="6d3c64d7-10be-4a87-8dc5-29212760f3d8"><stop stop-color="#fff72e" offset="0"></stop><stop stop-color="#deae29" offset="1"></stop></linearGradient><rect width="395.5199890136719" height="201.8533477783203" fill="url(#6d3c64d7-10be-4a87-8dc5-29212760f3d8)" mask="url(#6f06e906-d999-407c-bbd7-3f445ca2b975)" data-fill-palette-color="primary"></rect><mask id="33aed021-d5bf-4d10-8964-955bf918509b"><g id="SvgjsG1013"><svg viewBox="0 0 395.5199999999999 201.85334613160376" height="201.85334613160376" width="395.5199999999999"><g><svg viewBox="0 0 675.6438579778064 344.8143545865855" height="201.85334613160376" width="395.5199999999999"><g transform="matrix(1,0,0,1,280.12385797780644,96.8118224545831)"><svg viewBox="0 0 395.52 151.19070967741933" height="151.19070967741933" width="395.52"><g id="SvgjsG1012"><svg viewBox="0 0 395.52 151.19070967741933" height="151.19070967741933" width="395.52" id="SvgjsSvg1011"><g><svg viewBox="0 0 395.52 151.19070967741933" height="151.19070967741933" width="395.52"><g transform="matrix(1,0,0,1,0,0)"><svg width="395.52" viewBox="3.9000000953674316 -35 92.98999786376953 35.54999923706055" height="151.19070967741933" data-palette-color="url(#6d3c64d7-10be-4a87-8dc5-29212760f3d8)"></svg></g></svg></g></svg></g></svg></g><g><svg viewBox="0 0 244.43136 344.8143545865855" height="344.8143545865855" width="244.43136"><g><svg xmlns="http://www.w3.org/2000/svg" xmlns:xlink="http://www.w3.org/1999/xlink" version="1.1" x="0" y="0" viewBox="20.288999557495117 8.08799934387207 59.42100524902344 83.82400512695312" enable-background="new 0 0 100 100" xml:space="preserve" height="344.8143545865855" width="244.43136" class="icon-icon-0" data-fill-palette-color="accent" id="SvgjsSvg1010"><path d="M79.709 25.188l0.001-10.347c0-2.797-1.702-5.197-4.127-6.221-0.808-0.342-1.697-0.532-2.631-0.532L50.022 8.089 27.047 8.088c-0.933 0-1.822 0.189-2.631 0.532-2.425 1.024-4.127 3.423-4.126 6.221l0.001 10.347h0.006L20.289 85.16c0 3.727 3.021 6.749 6.748 6.749l11.869 0.001c-0.001 0.001-0.001 0.001-0.002 0.002l11.11-0.001 11.081 0.001c-0.001-0.001-0.001-0.001-0.002-0.002l11.869-0.001c3.727 0 6.749-3.022 6.748-6.749l-0.007-59.973H79.709zM53.268 88.404h-6.536c-0.97 0-1.756-0.786-1.756-1.756 0-0.34 0.098-0.656 0.265-0.925 0.071-0.115 0.154-0.222 0.249-0.317 0.318-0.318 0.757-0.514 1.242-0.514h6.536c0.667 0 1.247 0.372 1.544 0.919 0.135 0.249 0.212 0.534 0.212 0.837 0 0.303-0.077 0.588-0.212 0.837C54.515 88.032 53.935 88.404 53.268 88.404zM75.385 79.263c0 1.192-0.966 2.158-2.158 2.158H58.118l-31.346 0c-1.192 0-2.158-0.966-2.158-2.158V25.188h0V19.35c0-0.794 0.43-1.486 1.069-1.861 0.26-0.152 0.553-0.254 0.868-0.286 0.072-0.007 0.146-0.011 0.221-0.011h46.455c0.428 0 0.826 0.126 1.162 0.342 0.598 0.384 0.996 1.053 0.996 1.816v5.838h0V79.263zM68.632 46.051v4.5c0 1.008-0.817 1.825-1.824 1.825h-1.262c-0.788 2.569-2.324 4.87-4.394 6.711l0.003-0.002c-0.011 0.009-0.02 0.017-0.031 0.026-0.077 0.069-0.156 0.136-0.235 0.204-1.855 1.681-2.024 3.647-2.036 4.142v1.489c0 0.546-0.442 0.988-0.988 0.988H51.84c-0.546 0-0.988-0.442-0.988-0.988v-1.42c-0.688 0.072-1.389 0.111-2.099 0.111-0.91 0-1.803-0.061-2.675-0.179v1.488c0 0.546-0.442 0.988-0.988 0.988h-6.026c-0.523 0-0.95-0.407-0.984-0.921l-0.001 0.001c0 0 0-0.003 0.001-0.01-0.001-0.019-0.003-0.038-0.003-0.058v-0.449c-0.046-1.041-0.369-3.46-2.264-5.411-1.305-1.344-2.261-3-2.916-4.415-0.497-0.964-0.881-1.981-1.14-3.039-0.008-0.03-0.013-0.047-0.013-0.047l0.001 0.001c-0.246-1.02-0.377-2.077-0.377-3.162 0-8.401 7.784-15.212 17.385-15.212 2.076 0 4.067 0.319 5.913 0.903 0.854-1.266 2.502-2.786 5.586-3.17 0.915-0.114 1.548 0.882 1.059 1.662-0.698 1.113-1.295 2.669-0.812 4.368 0.026 0.091 0.039 0.181 0.042 0.268 2.308 1.864 4.037 4.267 4.926 6.982 0.001 0 0.002 0 0.002 0h1.337C67.815 44.226 68.632 45.043 68.632 46.051z" fill="white"></path></svg></g></svg></g></svg></g><defs><mask></mask></defs><mask><g id="SvgjsG1009"><svg viewBox="0 0 395.5199999999999 201.85334613160376" height="201.85334613160376" width="395.5199999999999"><g><svg viewBox="0 0 675.6438579778064 344.8143545865855" height="201.85334613160376" width="395.5199999999999"><g transform="matrix(1,0,0,1,280.12385797780644,96.8118224545831)"><svg viewBox="0 0 395.52 151.19070967741933" height="151.19070967741933" width="395.52"><g id="SvgjsG1008"><svg viewBox="0 0 395.52 151.19070967741933" height="151.19070967741933" width="395.52" id="SvgjsSvg1007"><g><svg viewBox="0 0 395.52 151.19070967741933" height="151.19070967741933" width="395.52"><g transform="matrix(1,0,0,1,0,0)"><svg width="395.52" viewBox="3.9000000953674316 -35 92.98999786376953 35.54999923706055" height="151.19070967741933" data-palette-color="url(#6d3c64d7-10be-4a87-8dc5-29212760f3d8)"></svg></g></svg></g></svg></g></svg></g><g><svg viewBox="0 0 244.43136 344.8143545865855" height="344.8143545865855" width="244.43136"><g><svg xmlns="http://www.w3.org/2000/svg" xmlns:xlink="http://www.w3.org/1999/xlink" version="1.1" x="0" y="0" viewBox="20.288999557495117 8.08799934387207 59.42100524902344 83.82400512695312" enable-background="new 0 0 100 100" xml:space="preserve" height="344.8143545865855" width="244.43136" class="icon-icon-0" data-fill-palette-color="accent" id="SvgjsSvg1005"></svg></g></svg></g></svg></g><defs><mask></mask></defs></svg></g></mask></svg></g></mask><linearGradient x1="0" x2="1" y1="0.5" y2="0.5" id="9e4f8a6e-3ac1-4648-8592-f02b5db3c264"><stop stop-color="#fff72e" offset="0"></stop><stop stop-color="#deae29" offset="1"></stop></linearGradient><rect width="395.5199890136719" height="201.8533477783203" fill="url(#9e4f8a6e-3ac1-4648-8592-f02b5db3c264)" mask="url(#33aed021-d5bf-4d10-8964-955bf918509b)" data-fill-palette-color="accent"></rect></svg><rect width="395.5199999999999" height="201.85334613160376" fill="none" stroke="none" visibility="hidden"></rect></g></svg></g></svg>